<svg width="102" height="102" viewBox="0 0 102 102" fill="none" xmlns="http://www.w3.org/2000/svg">
<path d="M74 40.271V65.694C74 75.7844 65.5565 83.9651 55.1421 83.9651H53.2347L43.4941 93.3963C43.1127 93.7659 42.5849 94 42 94C41.4596 94 40.97 93.809 40.5949 93.4887L40.4296 93.3285L40.4232 93.3224L30.7653 83.9651H28.8516C18.4435 83.9651 10 75.7844 10 65.694V40.271C10 30.1807 18.4435 22 28.8579 22H55.1421C65.5565 22 74 30.1807 74 40.271Z" fill="#FFD666"/>
<path d="M24.2697 57.219C22.4132 57.219 21.355 59.2687 22.4322 60.7487C26.6205 66.5139 33.5462 70.2728 41.3717 70.2728C49.1972 70.2728 56.1166 66.5077 60.3049 60.7487C61.3821 59.2687 60.324 57.219 58.4674 57.219H24.2697Z" fill="white"/>
<path d="M35.1432 48.4937H23.9405V43.0196C23.9405 39.9976 26.4497 37.5454 29.5419 37.5454C32.634 37.5454 35.1432 39.9976 35.1432 43.0196V48.4937Z" fill="white"/>
<path d="M58.803 48.4937H47.6002V43.0196C47.6002 39.9976 50.1094 37.5454 53.2016 37.5454C56.2938 37.5454 58.803 39.9976 58.803 43.0196V48.4937Z" fill="white"/>
</svg>
